<svg xmlns="http://www.w3.org/2000/svg" xmlns:xlink="http://www.w3.org/1999/xlink" viewBox="0,0,256,256" width="48px" height="48px" fill-rule="nonzero"><g fill-opacity="0" fill="#ffffff" fill-rule="nonzero" stroke="none" stroke-width="1" stroke-linecap="butt" stroke-linejoin="miter" stroke-miterlimit="10" stroke-dasharray="" stroke-dashoffset="0" font-family="none" font-weight="none" font-size="none" text-anchor="none" style="mix-blend-mode: normal"><path d="M0,256v-256h256v256z" id="bgRectangle"></path></g><g fill="none" fill-rule="nonzero" stroke="none" stroke-width="none" stroke-linecap="none" stroke-linejoin="none" stroke-miterlimit="10" stroke-dasharray="" stroke-dashoffset="0" font-family="none" font-weight="none" font-size="none" text-anchor="none" style="mix-blend-mode: normal"><g transform="scale(5.33333,5.33333)"><path d="M27.015,46.507l-17.522,-17.521c-0.544,-0.544 -0.544,-1.426 0,-1.969l17.522,-17.523c0.544,-0.544 1.426,-0.544 1.969,0l17.523,17.522c0.544,0.544 0.544,1.426 0,1.969l-17.522,17.522c-0.544,0.543 -1.426,0.543 -1.97,0z" fill="#e7ca5d" stroke="none" stroke-width="1" stroke-linecap="butt" stroke-linejoin="miter"></path><path d="M28.916,38.576l-3.931,3.932c-0.544,0.543 -1.426,0.543 -1.97,0l-17.522,-17.522c-0.544,-0.544 -0.544,-1.426 0,-1.969l9.017,-9.018" fill="none" stroke="#18193f" stroke-width="3" stroke-linecap="round" stroke-linejoin="round"></path><path d="M18.619,9.89l4.396,-4.396c0.544,-0.544 1.426,-0.544 1.969,0l17.523,17.522c0.544,0.544 0.544,1.426 0,1.969l-9.378,9.379" fill="none" stroke="#18193f" stroke-width="3" stroke-linecap="round" stroke-linejoin="round"></path><circle cx="24" cy="32.73" r="2.91" fill="#18193f" stroke="none" stroke-width="1" stroke-linecap="butt" stroke-linejoin="miter"></circle><circle cx="32.73" cy="24.001" r="2.91" fill="#18193f" stroke="none" stroke-width="1" stroke-linecap="butt" stroke-linejoin="miter"></circle><circle cx="24" cy="15.271" r="2.91" fill="#18193f" stroke="none" stroke-width="1" stroke-linecap="butt" stroke-linejoin="miter"></circle><path d="M24,32.73v-17.459" fill="none" stroke="#18193f" stroke-width="3" stroke-linecap="round" stroke-linejoin="round"></path><path d="M32.73,24.001l-14.11,-14.11" fill="none" stroke="#18193f" stroke-width="3" stroke-linecap="round" stroke-linejoin="round"></path></g></g></svg>